<?xml version="1.0" standalone="no"?>
<!DOCTYPE svg PUBLIC "-//W3C//DTD SVG 20010904//EN"
 "http://www.w3.org/TR/2001/REC-SVG-20010904/DTD/svg10.dtd">
<svg version="1.0" xmlns="http://www.w3.org/2000/svg"
 width="200.000000pt" height="200.000000pt" viewBox="0 0 200.000000 200.000000"
 preserveAspectRatio="xMidYMid meet">
<metadata>
Created by potrace 1.14, written by Peter Selinger 2001-2017
</metadata>
<g transform="translate(0.000000,200.000000) scale(0.100000,-0.100000)"
fill="#000000" stroke="none">
<path d="M535 1710 c-8 -14 3 -30 21 -30 8 0 14 -9 14 -22 0 -21 0 -21 -21 -2
-17 15 -22 16 -29 4 -11 -18 -4 -30 19 -30 11 0 25 -14 35 -34 22 -48 20 -50
-16 -23 -33 24 -78 43 -78 33 0 -3 18 -29 39 -58 36 -47 38 -53 23 -64 -14
-10 -20 -10 -34 3 -20 18 -41 8 -33 -17 3 -11 0 -20 -10 -24 -19 -7 -20 -32
-1 -39 9 -4 12 -14 9 -28 -5 -19 -3 -21 16 -16 14 3 24 0 28 -9 7 -19 33 -18
33 1 0 8 9 15 19 15 24 0 37 18 23 32 -6 6 -8 17 -5 24 3 8 0 21 -7 29 -16 19
-4 33 12 17 16 -16 28 -15 28 1 0 7 16 37 35 67 20 31 35 67 35 84 l0 29 -26
-24 c-15 -13 -35 -37 -45 -54 l-19 -30 0 35 c0 39 13 65 32 65 7 0 14 10 16
23 5 32 -15 27 -38 -10 l-19 -31 -12 46 c-11 44 -30 60 -44 37z m135 -114 c0
-7 -13 -30 -30 -51 -30 -38 -40 -33 -19 8 12 22 39 57 46 57 1 0 3 -6 3 -14z
m-101 -52 c24 -30 27 -48 9 -42 -17 6 -53 68 -40 68 6 0 20 -12 31 -26z m-49
-103 c-1 -12 -6 -10 -20 8 -11 12 -17 28 -13 34 8 12 33 -20 33 -42z m30 18
c-7 -11 -14 -19 -16 -16 -7 7 7 37 17 37 6 0 5 -9 -1 -21z m25 -29 c-3 -5 -13
-10 -21 -10 -8 0 -12 5 -9 10 3 6 13 10 21 10 8 0 12 -4 9 -10z m-75 -10 c0
-5 -6 -10 -14 -10 -8 0 -18 5 -21 10 -3 6 3 10 14 10 12 0 21 -4 21 -10z m2
-42 c-6 -6 -15 -8 -19 -4 -4 4 -1 11 7 16 19 12 27 3 12 -12z m78 12 c0 -5 -7
-7 -15 -4 -8 4 -15 8 -15 10 0 2 7 4 15 4 8 0 15 -4 15 -10z m-40 -22 c0 -18
-2 -20 -9 -8 -6 8 -7 18 -5 22 9 14 14 9 14 -14z"/>
<path d="M1415 1690 c-3 -5 -12 -7 -20 -3 -8 3 -15 0 -15 -7 0 -6 -7 -18 -15
-26 -8 -9 -15 -19 -15 -24 0 -16 31 -40 51 -40 11 0 19 -7 19 -16 0 -16 -23
-14 -67 8 -12 6 -30 7 -40 4 -16 -7 -16 -9 7 -21 14 -7 35 -27 48 -44 30 -42
67 -41 120 2 23 17 41 36 41 41 1 14 -70 -2 -92 -21 -20 -18 -20 -17 -14 7 4
14 7 28 7 33 0 4 14 7 31 7 42 0 69 17 66 40 -5 31 -36 58 -63 55 -13 -1 -24
2 -24 6 0 12 -17 11 -25 -1z m16 -56 c-4 -16 -14 -30 -22 -32 -21 -4 -53 23
-44 37 5 9 14 6 32 -11 l26 -23 -17 32 c-20 39 -20 44 -1 37 9 -4 15 0 15 7 1
10 3 10 10 -2 5 -9 6 -29 1 -45z m59 28 c0 -3 -10 -17 -22 -30 -23 -26 -8 -21
25 6 15 14 17 13 17 -5 0 -31 -55 -47 -66 -20 -9 23 14 67 31 61 8 -3 15 -9
15 -12z m-90 -121 c16 -30 13 -46 -6 -31 -26 22 -37 50 -20 50 9 0 20 -9 26
-19z m73 -13 c-32 -31 -49 -34 -38 -7 5 14 39 35 60 38 5 0 -5 -13 -22 -31z"/>
<path d="M654 1447 c-17 -29 -35 -63 -38 -77 -5 -18 -1 -15 12 10 44 82 59
102 66 84 6 -16 -4 -42 -38 -99 l-19 -30 26 30 c36 41 51 88 37 115 -6 11 -12
20 -13 20 -1 0 -16 -24 -33 -53z"/>
<path d="M1283 1490 c-42 -17 -57 -85 -29 -126 12 -16 13 -29 4 -63 -10 -40
-11 -41 -25 -21 -8 11 -25 20 -38 20 -13 0 -29 8 -34 18 -8 13 -10 -1 -9 -53
1 -68 2 -71 41 -107 28 -27 38 -44 34 -58 -6 -24 1 -25 27 -5 11 8 33 15 49
15 33 0 70 17 62 29 -2 5 2 14 10 21 27 23 18 40 -23 40 -38 0 -82 -22 -82
-42 0 -6 7 -5 18 4 20 18 70 29 78 17 2 -4 -8 -15 -23 -23 -15 -8 -22 -15 -15
-16 30 -1 -2 -20 -33 -20 l-34 0 5 92 c5 118 9 130 38 122 33 -8 94 21 108 50
9 21 8 29 -5 44 -10 10 -17 26 -17 35 0 10 -14 20 -37 26 -44 12 -41 12 -70 1z
m90 -60 c4 -14 1 -15 -19 -6 -13 6 -24 17 -24 24 0 7 -7 15 -15 18 -8 4 -12
10 -9 15 7 12 61 -29 67 -51z m-86 21 c-3 -12 1 -22 10 -25 9 -4 13 -14 10
-25 -3 -12 1 -22 9 -25 8 -3 14 -13 14 -21 0 -12 -6 -15 -22 -10 -33 10 -60
45 -54 69 3 12 6 29 6 39 0 9 7 17 16 17 11 0 15 -6 11 -19z m33 -11 c0 -5 -2
-10 -4 -10 -3 0 -8 5 -11 10 -3 6 -1 10 4 10 6 0 11 -4 11 -10z m30 -29 c0 -5
-7 -11 -15 -15 -15 -5 -20 5 -8 17 9 10 23 9 23 -2z m29 -43 c-17 -15 -24 -16
-30 -6 -15 23 -10 30 16 26 20 -4 25 -1 26 16 1 19 2 20 6 1 3 -12 -3 -26 -18
-37z m-179 -93 c7 -8 16 -13 20 -10 12 8 20 -22 20 -76 0 -39 -3 -47 -12 -39
-7 5 -24 18 -37 29 -19 14 -25 29 -27 65 -3 48 11 61 36 31z"/>
<path d="M1459 1470 c-1 -3 -1 -8 -1 -12 1 -3 -5 -11 -12 -17 -11 -9 -11 -17
-2 -36 6 -14 17 -23 24 -20 6 2 12 0 12 -5 0 -6 7 -10 15 -10 8 0 15 5 15 10
0 6 7 10 15 10 11 0 14 9 12 33 -2 18 -8 31 -15 30 -7 -2 -12 3 -12 11 0 13
-48 18 -51 6z"/>
<path d="M730 1369 c0 -7 7 -17 15 -23 9 -6 18 -28 22 -49 5 -33 3 -37 -16
-37 -11 0 -21 6 -21 14 0 16 -38 66 -51 66 -5 0 -9 -7 -9 -15 0 -8 7 -15 15
-15 14 0 35 -29 35 -49 0 -6 -6 -11 -14 -11 -8 0 -16 -6 -19 -12 -5 -16 -18
-6 -21 16 -1 9 -5 16 -9 16 -4 0 -10 0 -13 0 -4 0 1 -11 10 -24 9 -14 13 -32
9 -41 -3 -10 0 -21 8 -26 7 -4 14 -22 15 -39 2 -38 18 -57 54 -65 27 -6 51
-35 29 -35 -5 0 -2 -12 7 -26 l17 -25 -29 7 c-39 9 -45 14 -38 25 3 5 9 7 14
4 4 -3 10 2 14 10 8 22 -14 29 -29 9 -19 -25 -14 -36 21 -53 40 -19 61 -39 68
-64 5 -21 4 -21 -13 2 -18 24 -19 24 -40 5 -19 -19 -19 -22 -5 -42 15 -21 83
-62 103 -62 6 0 8 6 5 13 -2 7 2 32 11 56 8 24 15 52 15 63 0 17 -4 19 -27 13
-15 -3 -31 -12 -35 -18 -17 -27 -7 26 12 63 11 22 20 48 20 60 0 42 -59 10
-61 -33 0 -22 0 -22 -10 1 -6 17 -5 30 6 45 18 25 19 60 4 89 -8 14 -8 23 0
31 16 16 14 37 -4 37 -11 0 -15 11 -15 35 0 38 -24 95 -40 95 -6 0 -10 -5 -10
-11z m24 -141 c-7 -23 -6 -23 15 -4 11 11 24 16 29 12 4 -4 -2 -14 -12 -22
-18 -13 -18 -15 -3 -32 19 -21 22 -49 7 -72 -8 -12 -10 -10 -10 10 0 28 -25
70 -41 70 -6 0 -1 -12 10 -26 12 -15 21 -38 21 -52 0 -24 -1 -25 -20 -7 -11
10 -21 30 -21 44 -2 23 -2 23 -6 4 -2 -12 1 -31 7 -42 6 -12 7 -21 2 -21 -19
0 -34 31 -30 60 3 23 0 31 -14 36 -10 3 -16 10 -12 15 3 6 13 8 21 5 11 -4 13
-1 8 14 -7 22 5 26 23 8 9 -9 12 -8 12 5 0 9 5 17 11 17 6 0 8 -9 3 -22z m81
-187 c-20 -39 -25 -39 -25 0 0 16 4 28 9 25 5 -3 12 2 16 12 5 10 9 13 12 5 2
-6 -3 -25 -12 -42z m41 -96 c-3 -13 -11 -37 -18 -52 l-12 -28 -4 30 c-2 16 1
31 7 33 6 2 11 12 11 23 0 10 5 19 11 19 7 0 9 -10 5 -25z m-72 -53 c16 -32
16 -33 -1 -23 -45 26 -47 28 -32 44 8 8 15 14 15 13 1 0 9 -16 18 -34z"/>
<path d="M1435 1321 c-4 -22 -4 -49 0 -61 5 -14 2 -20 -9 -20 -20 0 -21 -29
-2 -36 10 -4 13 -15 9 -39 -6 -39 23 -75 62 -75 27 0 35 -19 33 -77 -1 -29 -3
-31 -21 -21 -19 10 -19 12 -4 23 14 10 15 15 4 23 -9 8 -15 4 -24 -14 -10 -21
-8 -26 18 -45 20 -14 29 -29 29 -49 0 -57 9 -61 45 -22 31 33 33 38 18 50 -9
6 -21 12 -26 12 -5 0 -7 -6 -4 -12 2 -7 10 -12 16 -10 18 4 12 -12 -10 -26
-19 -12 -20 -11 -14 9 5 15 4 19 -5 14 -18 -11 -3 32 26 75 31 46 31 68 -1 68
-14 0 -25 -4 -25 -9 0 -5 -4 -9 -10 -9 -16 0 -12 20 10 47 22 28 26 68 9 78
-6 4 -7 19 -4 36 4 18 3 29 -4 29 -6 0 -11 13 -11 29 0 36 -9 61 -21 61 -6 0
-5 -8 1 -19 13 -25 13 -61 0 -61 -5 0 -10 11 -10 25 0 14 -5 25 -10 25 -6 0
-8 -11 -4 -25 5 -21 3 -25 -14 -25 -11 0 -22 -6 -25 -12 -2 -7 -8 -1 -12 14
-4 15 -2 35 5 48 8 15 8 26 2 32 -7 7 -12 -4 -17 -31z m73 -69 c9 9 12 9 12 0
0 -7 7 -9 18 -5 15 6 15 4 4 -9 -10 -13 -11 -22 -3 -37 14 -25 14 -68 1 -76
-6 -4 -10 5 -10 20 0 31 -16 65 -31 65 -6 0 -3 -7 5 -16 17 -17 22 -74 6 -74
-5 0 -12 12 -16 28 -9 42 -14 50 -10 17 2 -16 7 -38 11 -47 10 -25 -10 -23
-36 3 -20 20 -21 32 -4 72 5 12 2 17 -8 17 -9 0 -19 5 -23 11 -5 9 1 10 20 5
22 -5 26 -3 26 15 0 17 3 19 13 10 10 -8 17 -7 25 1z m82 -189 c0 -5 -9 -19
-20 -33 l-20 -25 0 27 c0 17 6 28 18 31 9 3 18 5 20 6 1 0 2 -2 2 -6z"/>
<path d="M620 1331 c0 -5 5 -13 10 -16 6 -3 10 -2 10 4 0 5 -4 13 -10 16 -5 3
-10 2 -10 -4z"/>
<path d="M529 1302 c-13 -16 -29 -38 -36 -48 -11 -18 -12 -18 -12 3 -1 24 -16
38 -31 28 -6 -4 -4 -15 6 -30 9 -13 14 -30 11 -37 -3 -8 -9 -1 -16 15 -12 30
-34 32 -39 4 -2 -10 3 -17 13 -17 8 0 20 -12 25 -26 12 -32 13 -101 1 -108
-11 -7 -33 77 -25 97 3 8 -2 17 -11 21 -25 9 -27 -16 -5 -59 11 -21 20 -55 19
-75 l-1 -35 -14 33 c-15 33 -28 40 -40 21 -4 -7 3 -19 16 -29 26 -19 38 -90
22 -130 -9 -23 -10 -24 -17 -5 -15 46 -35 85 -44 85 -11 0 -21 -35 -21 -76 0
-25 35 -150 46 -163 2 -3 14 5 27 16 12 11 37 28 55 38 25 12 40 31 58 71 13
30 24 57 24 60 0 14 -63 -31 -94 -68 -37 -45 -43 -39 -25 25 13 47 47 71 89
62 24 -5 30 -3 30 10 0 14 -6 16 -37 10 -21 -4 -42 -7 -48 -8 -18 -3 -16 42 4
81 11 22 37 54 57 70 23 19 34 35 29 43 -6 8 -16 2 -36 -22 l-28 -34 -1 33 c0
45 45 133 65 126 18 -7 32 23 18 37 -7 7 -18 0 -34 -19z m-149 -376 c4 -20 5
-49 1 -64 -7 -26 -8 -26 -18 -7 -27 49 -28 144 -2 118 6 -6 14 -27 19 -47z
m115 -46 c-14 -27 -55 -60 -55 -44 0 3 -8 0 -17 -7 -17 -13 -17 -12 -4 6 55
75 108 106 76 45z"/>
<path d="M454 858 l-19 -23 23 19 c21 18 27 26 19 26 -2 0 -12 -10 -23 -22z"/>
<path d="M1352 1309 c2 -6 8 -10 13 -10 5 0 11 4 13 10 2 6 -4 11 -13 11 -9 0
-15 -5 -13 -11z"/>
<path d="M1300 1270 c0 -5 5 -10 10 -10 6 0 10 5 10 10 0 6 -4 10 -10 10 -5 0
-10 -4 -10 -10z"/>
<path d="M1130 1146 c0 -8 -7 -16 -15 -20 -23 -8 -18 -42 9 -59 31 -21 68 -11
64 17 -1 11 1 27 5 34 5 6 5 13 0 14 -25 4 -39 3 -46 -7 -5 -5 -5 0 -2 13 4
13 2 22 -4 22 -6 0 -11 -6 -11 -14z m50 -26 c0 -5 -5 -10 -11 -10 -5 0 -7 5
-4 10 3 6 8 10 11 10 2 0 4 -4 4 -10z m0 -41 c0 -6 -4 -7 -10 -4 -5 3 -10 11
-10 16 0 6 5 7 10 4 6 -3 10 -11 10 -16z m-33 -11 c-3 -8 -6 -5 -6 6 -1 11 2
17 5 13 3 -3 4 -12 1 -19z"/>
<path d="M1263 1065 c11 -23 37 -35 37 -17 0 7 -36 42 -44 42 -2 0 1 -11 7
-25z"/>
<path d="M472 1027 c-26 -28 -29 -46 -4 -25 9 8 25 18 35 21 9 4 17 11 17 17
0 18 -26 11 -48 -13z"/>
<path d="M1116 1032 c-2 -4 1 -27 7 -50 8 -32 8 -45 -1 -54 -9 -9 -12 -7 -12
9 0 28 -27 50 -42 35 -8 -8 -6 -23 6 -56 12 -32 15 -50 7 -63 -9 -16 -11 -15
-20 10 -11 28 -41 38 -41 12 0 -8 8 -30 17 -50 20 -42 11 -57 -16 -24 -17 21
-20 22 -26 7 -4 -9 1 -30 9 -47 9 -16 16 -54 17 -83 0 -35 3 -46 8 -34 4 11
23 25 42 31 19 7 35 19 37 28 4 19 -19 22 -49 7 -15 -8 -19 -7 -19 3 0 21 20
35 55 39 20 2 31 9 33 22 4 17 0 18 -32 13 -40 -6 -43 -2 -21 30 12 17 22 21
48 16 23 -3 37 0 47 12 12 14 12 18 -1 26 -8 5 -26 6 -41 3 -16 -3 -28 -3 -28
-1 0 16 35 37 60 37 39 0 60 9 60 27 0 11 -9 14 -35 11 -28 -3 -32 -1 -23 10
7 7 29 22 50 33 42 22 51 49 16 49 -14 0 -35 -14 -51 -32 -16 -18 -26 -27 -22
-21 12 25 -25 68 -39 45z m24 -22 c0 -11 -2 -20 -4 -20 -2 0 -6 9 -9 20 -3 11
-1 20 4 20 5 0 9 -9 9 -20z m80 0 c-33 -26 -48 -26 -25 0 10 11 25 20 34 20
12 0 9 -6 -9 -20z m-126 -56 c3 -9 6 -23 6 -32 0 -21 -15 -5 -25 26 -7 25 9
31 19 6z m106 -24 c-8 -5 -24 -10 -35 -10 -17 0 -17 2 -5 10 8 5 24 10 35 10
17 0 17 -2 5 -10z m-151 -83 c0 -21 -1 -21 -9 -2 -12 28 -12 37 0 30 6 -3 10
-16 9 -28z m100 3 c-6 -5 -19 -6 -27 -2 -13 4 -12 7 4 12 23 9 41 1 23 -10z
m-129 -59 c0 -5 3 -17 7 -27 4 -11 3 -15 -4 -11 -14 9 -24 47 -12 47 5 0 9 -4
9 -9z m95 -21 c-3 -5 -15 -10 -26 -10 -11 0 -17 5 -14 10 3 6 15 10 26 10 11
0 17 -4 14 -10z m-26 -74 c-2 -2 -15 -7 -29 -10 l-25 -7 25 15 c21 12 42 14
29 2z"/>
<path d="M890 860 c0 -5 4 -10 9 -10 6 0 13 5 16 10 3 6 -1 10 -9 10 -9 0 -16
-4 -16 -10z"/>
<path d="M1560 850 c-9 -17 -14 -18 -30 -8 -16 11 -22 9 -34 -7 -19 -25 -20
-44 -2 -51 8 -3 12 -13 9 -25 -7 -25 16 -52 39 -46 14 4 18 -1 18 -20 0 -25 0
-25 -26 -9 -14 10 -29 16 -33 14 -19 -7 11 -49 48 -68 47 -23 74 -59 69 -90
-3 -22 -3 -22 -40 4 -36 24 -38 25 -38 5 0 -43 30 -80 87 -105 30 -14 57 -24
58 -22 1 2 7 28 13 58 7 40 7 64 -1 89 -16 46 -33 50 -35 9 -1 -18 -6 -46 -11
-63 -8 -29 -8 -29 -16 19 -6 36 -3 61 9 95 18 50 21 95 7 86 -5 -3 -15 -22
-21 -43 -18 -56 -28 -60 -45 -19 -22 52 -20 76 5 70 11 -3 20 0 20 6 0 6 7 11
15 11 21 0 19 38 -4 52 -15 9 -17 15 -7 30 9 16 7 22 -8 34 -26 19 -33 18 -46
-6z m38 -10 c12 0 10 -5 -8 -25 -22 -24 -22 -25 -4 -25 20 0 44 -17 44 -32 0
-4 -6 -8 -14 -8 -8 0 -17 -6 -19 -12 -4 -8 -8 -4 -12 10 -10 29 -23 28 -35 -4
-9 -23 -11 -24 -26 -9 -15 15 -15 17 1 35 18 19 17 20 -8 20 -30 0 -35 14 -12
36 13 13 16 12 27 -6 18 -28 25 -25 34 13 4 17 9 26 11 20 3 -7 12 -13 21 -13z
m42 -187 c-11 -17 -11 -17 -6 0 3 10 6 24 7 30 0 9 2 9 5 0 3 -7 0 -20 -6 -30z
m-90 7 c18 -14 21 -20 9 -20 -9 0 -24 9 -34 20 -23 26 -8 26 25 0z m135 -169
c-6 -36 -9 -42 -15 -26 -8 20 -4 65 7 95 11 27 16 -18 8 -69z m-78 13 c38 -37
34 -56 -6 -34 -23 12 -57 70 -42 70 5 0 27 -16 48 -36z"/>
<path d="M806 813 c-11 -11 -6 -23 9 -23 8 0 15 4 15 9 0 13 -16 22 -24 14z"/>
<path d="M445 779 c-10 -15 3 -25 16 -12 7 7 7 13 1 17 -6 3 -14 1 -17 -5z"/>
<path d="M835 756 c-18 -38 -14 -56 13 -56 12 0 13 -3 4 -12 -7 -7 -12 -18
-12 -25 0 -20 37 -56 52 -51 8 3 24 -15 41 -45 15 -28 27 -52 27 -54 0 -3 -17
10 -37 27 -35 28 -38 29 -41 11 -6 -34 25 -78 63 -91 19 -6 41 -21 47 -33 12
-21 12 -20 19 13 4 19 15 55 24 80 12 34 14 50 6 68 -15 31 -26 22 -41 -33 -7
-25 -17 -45 -21 -45 -12 0 -11 11 6 40 19 33 21 90 3 72 -7 -7 -18 -27 -24
-45 l-12 -32 -15 35 c-14 32 -14 35 1 40 24 7 62 42 62 58 0 7 -7 15 -15 19
-14 5 -14 8 1 24 16 17 15 20 -7 44 -29 30 -33 30 -57 5 l-19 -20 -18 20 c-25
27 -31 25 -50 -14z m53 -3 c7 -11 6 -21 -3 -30 -18 -18 -55 -17 -55 2 0 8 7
15 15 15 9 0 12 6 9 15 -8 21 23 19 34 -2z m62 7 c0 -5 7 -10 15 -10 24 0 17
-18 -11 -33 l-27 -14 27 -7 c14 -3 26 -13 26 -22 0 -8 -4 -13 -9 -10 -5 3 -11
-3 -14 -14 -7 -26 -24 -25 -33 2 -6 21 -7 21 -21 -5 -15 -29 -33 -36 -33 -13
0 8 -6 17 -12 19 -9 4 -4 14 14 30 14 13 33 39 42 56 16 30 36 42 36 21z m31
-187 c-12 -20 -14 -14 -5 12 4 9 9 14 11 11 3 -2 0 -13 -6 -23z m39 -64 c-20
-47 -30 -33 -15 19 8 26 16 52 16 57 1 6 4 -3 6 -19 3 -15 -1 -41 -7 -57z
m-90 8 c14 -12 31 -30 38 -39 12 -14 10 -16 -10 -11 -30 7 -55 29 -61 54 -7
25 2 24 33 -4z"/>
<path d="M346 723 c-4 -4 -15 -8 -24 -8 -28 0 -27 -48 2 -83 15 -16 26 -40 26
-53 0 -24 0 -24 -23 5 -24 30 -47 29 -47 -2 0 -9 11 -32 25 -52 16 -23 23 -43
19 -54 -6 -16 -9 -14 -29 10 -23 28 -45 26 -45 -4 0 -9 14 -32 30 -50 29 -31
31 -31 48 -15 11 10 33 26 50 35 55 29 34 65 -21 37 -12 -6 -1 10 26 35 26 25
47 50 47 55 0 19 -21 22 -45 7 -14 -9 -25 -12 -25 -7 0 5 19 20 42 33 46 25
60 55 34 70 -9 5 -16 16 -16 24 0 11 -6 13 -19 9 -11 -3 -22 -1 -26 5 -7 12
-19 13 -29 3z m24 -34 c0 -11 -4 -17 -10 -14 -5 3 -10 15 -10 26 0 11 5 17 10
14 6 -3 10 -15 10 -26z m-24 -34 l7 -30 -22 19 c-11 11 -21 31 -21 45 0 22 2
23 14 11 8 -8 18 -28 22 -45z m64 36 c0 -5 -7 -14 -15 -21 -16 -14 -18 -10 -9
14 6 17 24 22 24 7z m30 -31 c0 -11 -48 -45 -55 -38 -3 2 2 14 11 26 15 22 44
30 44 12z m-110 -118 c0 -13 -3 -12 -20 3 -11 10 -20 28 -20 39 1 20 1 20 20
-3 11 -13 20 -30 20 -39z m80 29 c0 -12 -42 -42 -49 -36 -5 6 29 45 41 45 4 0
8 -4 8 -9z m-120 -100 c15 -28 13 -33 -10 -21 -11 6 -20 17 -20 25 0 21 17 18
30 -4z m100 9 c0 -5 -15 -17 -32 -25 l-33 -16 28 25 c31 28 37 31 37 16z"/>
<path d="M1595 670 c3 -5 8 -10 11 -10 2 0 4 5 4 10 0 6 -5 10 -11 10 -5 0 -7
-4 -4 -10z"/>
</g>
</svg>
