<?xml version="1.0" standalone="no"?>
<!DOCTYPE svg PUBLIC "-//W3C//DTD SVG 20010904//EN"
 "http://www.w3.org/TR/2001/REC-SVG-20010904/DTD/svg10.dtd">
<svg version="1.0" xmlns="http://www.w3.org/2000/svg"
 width="256.000000pt" height="256.000000pt" viewBox="0 0 256.000000 256.000000"
 preserveAspectRatio="xMidYMid meet">
<metadata>
Created by potrace 1.14, written by Peter Selinger 2001-2017
</metadata>
<g transform="translate(0.000000,256.000000) scale(0.100000,-0.100000)"
fill="#000000" stroke="none">
<path d="M1176 2329 c-33 -5 -64 -13 -70 -19 -5 -5 -24 -10 -40 -10 -17 -1
-49 -9 -71 -20 -22 -11 -47 -19 -55 -20 -8 0 -32 -9 -53 -20 -20 -11 -43 -20
-50 -20 -16 0 -84 -63 -124 -115 -19 -26 -33 -58 -38 -90 -4 -27 -15 -68 -25
-90 -10 -22 -21 -62 -25 -90 -10 -75 -30 -115 -56 -115 -31 0 -115 -45 -155
-83 -46 -42 -94 -115 -88 -132 3 -7 -1 -24 -9 -37 -8 -13 -18 -37 -22 -55 -7
-33 12 -113 27 -113 4 0 8 -7 8 -15 0 -9 9 -33 20 -55 26 -50 25 -62 -2 -58
-17 2 -28 -7 -46 -40 -13 -23 -21 -49 -18 -57 9 -25 96 -74 143 -81 26 -4 56
-17 70 -30 14 -13 32 -24 39 -24 7 0 27 -20 44 -44 25 -34 48 -51 101 -75 54
-24 69 -36 69 -52 0 -26 34 -57 69 -65 14 -3 42 -12 61 -19 19 -8 55 -17 80
-21 25 -3 60 -12 79 -20 18 -8 48 -14 66 -14 29 0 34 4 43 38 6 20 18 57 27
82 10 27 15 66 13 100 -1 30 1 60 4 66 4 6 30 14 57 18 28 4 53 11 56 16 4 7
13 6 26 0 16 -9 18 -17 13 -50 -7 -40 -6 -40 39 -60 25 -11 48 -29 52 -39 3
-11 19 -24 36 -30 16 -6 43 -19 58 -30 16 -12 54 -24 86 -27 56 -7 60 -10 130
-82 l73 -75 44 7 c31 5 49 2 63 -8 11 -9 30 -16 41 -16 34 0 90 27 106 52 9
13 36 36 60 52 64 40 82 74 66 125 -7 22 -22 45 -35 52 -27 15 -39 45 -24 63
18 22 43 196 36 256 -6 52 -22 109 -34 120 -3 3 -13 21 -22 40 -9 20 -40 67
-68 104 l-52 68 0 128 c0 132 -1 138 -54 255 -8 17 -24 64 -36 105 -13 41 -29
82 -36 91 -7 8 -13 20 -13 25 0 17 -44 50 -111 85 -101 52 -111 56 -169 69
-68 15 -120 40 -120 57 0 41 -148 63 -284 42z m184 -346 c12 -32 31 -77 41
-100 11 -24 19 -46 19 -49 0 -4 12 -32 26 -63 14 -31 33 -71 41 -88 8 -18 13
-43 10 -55 -4 -13 -6 -95 -6 -183 0 -209 1 -203 -7 -255 -3 -25 -14 -53 -24
-62 -10 -9 -24 -30 -31 -46 -11 -26 -20 -31 -63 -37 -28 -3 -85 -15 -126 -26
-91 -24 -221 -33 -265 -19 -25 8 -46 32 -95 108 -35 53 -79 131 -98 172 -33
72 -34 79 -28 155 11 133 18 175 31 175 6 0 22 11 35 25 26 27 45 33 37 11 -3
-7 0 -19 6 -25 8 -8 9 -14 1 -19 -6 -4 -13 -17 -16 -28 -5 -19 0 -23 30 -28
77 -12 100 67 37 123 -35 31 -78 41 -90 21 -3 -5 -15 -15 -26 -20 -16 -9 -19
-7 -19 13 0 20 8 27 46 37 34 10 48 10 57 1 14 -14 64 -15 72 0 4 6 -4 22 -16
36 -21 22 -30 24 -80 21 l-56 -4 14 35 c9 20 31 67 50 104 l35 68 98 -2 c53
-1 105 3 116 9 10 5 42 13 71 17 39 5 141 28 149 34 1 1 12 -25 24 -56z"/>
<path d="M1145 1720 c-15 -16 -16 -22 -5 -35 11 -13 25 -15 74 -10 43 5 74 2
106 -9 49 -17 60 -14 44 12 -36 57 -180 85 -219 42z"/>
<path d="M976 1648 c3 -78 2 -76 14 -58 11 17 13 80 4 104 -13 34 -21 13 -18
-46z"/>
<path d="M1170 1634 c-28 -15 -50 -42 -50 -61 0 -21 15 -15 50 17 37 35 54 38
45 10 -5 -14 -2 -20 9 -20 9 0 16 -4 16 -10 0 -5 -7 -10 -15 -10 -21 0 -19
-22 4 -41 19 -17 84 -31 75 -17 -12 18 7 59 31 68 27 10 34 30 10 30 -8 0 -31
11 -51 25 -40 27 -85 31 -124 9z"/>
<path d="M942 1539 c-6 -8 -23 -27 -37 -43 -27 -31 -26 -62 4 -103 14 -19 24
-21 96 -19 77 2 80 3 83 26 2 15 0 20 -5 13 -11 -16 -129 -1 -150 19 -14 15
-13 20 7 56 23 41 25 79 2 51z"/>
<path d="M1208 1493 c7 -3 16 -2 19 1 4 3 -2 6 -13 5 -11 0 -14 -3 -6 -6z"/>
<path d="M1318 1373 c7 -3 16 -2 19 1 4 3 -2 6 -13 5 -11 0 -14 -3 -6 -6z"/>
<path d="M890 1286 c0 -9 4 -16 8 -16 5 0 22 -11 37 -24 16 -14 32 -23 36 -20
4 2 19 0 34 -6 28 -11 56 -3 36 9 -6 4 15 5 47 3 48 -3 60 -1 65 12 5 12 0 16
-24 16 -16 0 -46 7 -67 16 -20 9 -67 18 -104 21 -58 4 -68 2 -68 -11z"/>
<path d="M2031 1464 c0 -11 3 -14 6 -6 3 7 2 16 -1 19 -3 4 -6 -2 -5 -13z"/>
<path d="M2050 1442 c0 -14 41 -33 61 -27 36 12 22 35 -21 35 -22 0 -40 -3
-40 -8z"/>
</g>
</svg>
